<?xml version="1.0" encoding="utf-8"?>
<!-- Generator: Adobe Illustrator 16.0.0, SVG Export Plug-In . SVG Version: 6.00 Build 0)  -->
<!DOCTYPE svg PUBLIC "-//W3C//DTD SVG 1.1//EN" "http://www.w3.org/Graphics/SVG/1.1/DTD/svg11.dtd">
<svg version="1.1" id="Capa_1" xmlns="http://www.w3.org/2000/svg" xmlns:xlink="http://www.w3.org/1999/xlink" x="0px" y="0px"
	 width="960px" height="283.485px" viewBox="0 0 960 283.485" enable-background="new 0 0 960 283.485" xml:space="preserve">
<g>
	<g>
		<g>
			<g>
				<path fill="#FFFFFF" d="M393.904,88.037c14.404,0,27.694,7.814,25.876,27.288c-2.204,23.143-14.602,35.948-34.164,36.004
					h-17.093c-2.458,0-3.647,2.005-4.287,6.116l-3.306,21.017c-0.496,3.174-2.127,4.739-4.53,4.739h-15.902
					c-2.535,0-3.417-1.621-2.854-5.246l13.125-84.231c0.65-4.143,2.204-5.687,5.037-5.687h38.065H393.904z M368.006,133.135h12.949
					c8.101-0.309,13.479-5.919,14.019-16.035c0.331-6.249-3.891-10.724-10.602-10.69l-12.189,0.055L368.006,133.135L368.006,133.135
					z M463.015,176.754c1.455-1.322,2.931-2.006,2.722-0.375l-0.518,3.901c-0.265,2.039,0.54,3.119,2.436,3.119h14.129
					c2.379,0,3.537-0.959,4.121-4.64l8.707-54.641c0.439-2.744-0.232-4.088-2.315-4.088h-15.539c-1.4,0-2.083,0.782-2.447,2.92
					l-0.573,3.361c-0.297,1.752-1.102,2.061-1.851,0.297c-2.634-6.237-9.357-9.037-18.735-8.816
					c-21.788,0.452-36.478,16.994-38.054,38.197c-1.212,16.399,10.536,29.282,26.031,29.282c11.241,0,16.267-3.306,21.931-8.485l0,0
					L463.015,176.754z M451.178,168.345c-9.378,0-15.914-7.483-14.558-16.651c1.355-9.17,10.128-16.652,19.506-16.652
					s15.914,7.482,14.558,16.652C469.329,160.861,460.568,168.345,451.178,168.345L451.178,168.345z M522.262,119.854h-14.327
					c-2.954,0-4.155,2.204-3.218,4.915l17.787,52.083l-17.445,24.785c-1.467,2.072-0.331,3.957,1.729,3.957h16.102
					c1.916,0.222,3.786-0.696,4.782-2.348l54.707-78.467c1.686-2.413,0.893-4.948-1.873-4.948h-15.242
					c-2.611,0-3.658,1.036-5.158,3.207l-22.813,33.063l-10.193-33.14c-0.596-2.006-2.084-3.107-4.828-3.107H522.262z"/>
			</g>
		</g>
		<g>
			<g>
				<path fill="#FFFFFF" d="M639.289,88.037c14.404,0,27.695,7.814,25.877,27.288c-2.205,23.143-14.603,35.948-34.164,36.004H613.92
					c-2.458,0-3.648,2.005-4.287,6.116l-3.307,21.017c-0.496,3.174-2.127,4.739-4.529,4.739h-15.902
					c-2.535,0-3.416-1.621-2.854-5.246l13.147-84.253c0.65-4.144,2.204-5.687,5.036-5.687h38.065V88.037z M613.391,133.135h12.949
					c8.101-0.309,13.479-5.919,14.019-16.035c0.331-6.249-3.89-10.724-10.603-10.69l-12.188,0.055L613.391,133.135L613.391,133.135z
					 M708.4,176.754c1.453-1.322,2.93-2.006,2.721-0.375l-0.518,3.901c-0.264,2.039,0.541,3.119,2.436,3.119h14.129
					c2.381,0,3.537-0.959,4.121-4.64l8.707-54.641c0.441-2.744-0.232-4.088-2.314-4.088h-15.518c-1.4,0-2.082,0.782-2.447,2.92
					l-0.572,3.361c-0.297,1.752-1.102,2.061-1.852,0.297c-2.635-6.237-9.355-9.037-18.734-8.816
					c-21.789,0.452-36.479,16.994-38.055,38.197c-1.213,16.399,10.535,29.282,26.031,29.282c11.24,0,16.266-3.306,21.93-8.485l0,0
					L708.4,176.754z M696.574,168.345c-9.379,0-15.914-7.483-14.559-16.651c1.355-9.17,10.129-16.652,19.508-16.652
					c9.377,0,15.912,7.482,14.557,16.652C714.725,160.861,705.953,168.345,696.574,168.345L696.574,168.345z M761.738,183.487
					H745.43c-1.064,0.048-1.967-0.776-2.014-1.841c-0.006-0.121,0-0.243,0.018-0.363l14.328-90.766
					c0.281-1.276,1.404-2.189,2.711-2.204h16.311c1.063-0.048,1.965,0.776,2.012,1.84c0.006,0.122,0,0.243-0.018,0.364
					l-14.326,90.766c-0.273,1.284-1.398,2.209-2.713,2.227V183.487z"/>
			</g>
		</g>
	</g>
</g>
<g>
	<g>
		<path fill="#FFFFFF" d="M567.646,209.908c1.682,0,3.12,0.581,4.314,1.744s1.791,2.711,1.791,4.645s-0.593,3.505-1.779,4.715
			c-1.187,1.211-2.57,1.815-4.149,1.815s-2.998-0.691-4.256-2.074v1.886h-2.64v-17.493h2.64v7.144
			C564.604,210.701,565.963,209.908,567.646,209.908z M563.52,216.392c0,1.194,0.361,2.172,1.085,2.935
			c0.723,0.762,1.603,1.144,2.64,1.144c1.038,0,1.941-0.377,2.711-1.132c0.771-0.755,1.156-1.732,1.156-2.936
			c0-1.202-0.378-2.2-1.132-2.994c-0.755-0.794-1.658-1.19-2.712-1.19c-1.052,0-1.94,0.396-2.663,1.19
			C563.881,214.202,563.52,215.196,563.52,216.392z"/>
		<path fill="#FFFFFF" d="M578.349,227.637c-1.147,0-2.185-0.417-3.111-1.249l1.201-2.146c0.551,0.52,1.121,0.778,1.71,0.778
			s1.068-0.212,1.438-0.637c0.37-0.425,0.554-0.888,0.554-1.391c0-0.221-1.688-4.519-5.067-12.896h2.829l3.748,9.242l3.749-9.242
			h2.829l-6.083,14.9c-0.362,0.817-0.881,1.462-1.556,1.933C579.912,227.401,579.166,227.637,578.349,227.637z"/>
		<path fill="#FFFFFF" d="M609.61,208.316c1.586,1.438,2.38,3.438,2.38,6c0,2.563-0.771,4.59-2.31,6.082
			c-1.541,1.494-3.897,2.24-7.073,2.24h-5.47v-16.48h5.658C605.751,206.158,608.021,206.878,609.61,208.316z M609.186,214.388
			c0-3.772-2.161-5.659-6.483-5.659h-2.782v11.293h3.089c1.995,0,3.524-0.475,4.585-1.426S609.186,216.241,609.186,214.388z"/>
		<path fill="#FFFFFF" d="M615.363,207.597c-0.331-0.33-0.496-0.723-0.496-1.179s0.165-0.849,0.496-1.178
			c0.329-0.331,0.723-0.496,1.178-0.496c0.456,0,0.85,0.165,1.179,0.496c0.331,0.329,0.496,0.722,0.496,1.178
			s-0.165,0.849-0.496,1.179c-0.329,0.331-0.723,0.495-1.179,0.495C616.086,208.092,615.692,207.928,615.363,207.597z
			 M617.838,222.639h-2.64v-12.543h2.64V222.639z"/>
		<path fill="#FFFFFF" d="M633.326,217.522h-9.83c0.063,0.912,0.479,1.646,1.249,2.204c0.77,0.559,1.65,0.837,2.641,0.837
			c1.571,0,2.766-0.494,3.583-1.484l1.509,1.649c-1.352,1.399-3.111,2.099-5.28,2.099c-1.761,0-3.258-0.586-4.492-1.757
			c-1.233-1.17-1.85-2.742-1.85-4.715c0-1.972,0.628-3.54,1.886-4.703s2.738-1.744,4.444-1.744c1.705,0,3.155,0.515,4.349,1.543
			c1.195,1.03,1.792,2.449,1.792,4.256V217.522z M623.496,215.448h7.189c0-1.053-0.329-1.862-0.99-2.429
			c-0.659-0.565-1.473-0.849-2.439-0.849s-1.836,0.294-2.604,0.885C623.881,213.645,623.496,214.442,623.496,215.448z"/>
		<path fill="#FFFFFF" d="M647.826,210.096v10.94c0,2.215-0.602,3.878-1.805,4.985c-1.201,1.108-2.746,1.662-4.632,1.662
			s-3.592-0.589-5.116-1.769l1.25-2.003c1.226,0.927,2.464,1.391,3.713,1.391s2.239-0.322,2.971-0.967
			c0.73-0.645,1.097-1.674,1.097-3.089v-1.603c-0.394,0.739-0.955,1.328-1.687,1.768c-0.73,0.44-1.552,0.66-2.464,0.66
			c-1.666,0-3.033-0.581-4.103-1.744c-1.068-1.163-1.603-2.609-1.603-4.338s0.534-3.175,1.603-4.338
			c1.069-1.163,2.433-1.744,4.092-1.744c1.657,0,3.006,0.684,4.043,2.05v-1.862H647.826z M638.041,215.885
			c0,1.028,0.318,1.917,0.956,2.664c0.636,0.746,1.493,1.119,2.569,1.119c1.077,0,1.949-0.361,2.616-1.085
			c0.669-0.723,1.003-1.622,1.003-2.698c0-1.077-0.338-1.989-1.014-2.736c-0.676-0.745-1.549-1.119-2.617-1.119
			c-1.069,0-1.922,0.386-2.558,1.155C638.359,213.955,638.041,214.854,638.041,215.885z"/>
		<path fill="#FFFFFF" d="M662.137,220.953c-1.258,1.249-2.829,1.874-4.716,1.874c-1.886,0-3.458-0.625-4.715-1.874
			c-1.258-1.249-1.886-2.778-1.886-4.585c0-1.808,0.628-3.337,1.886-4.586c1.257-1.25,2.829-1.874,4.715-1.874
			c1.887,0,3.458,0.624,4.716,1.874c1.257,1.249,1.886,2.778,1.886,4.586C664.022,218.175,663.394,219.704,662.137,220.953z
			 M654.58,219.326c0.746,0.762,1.693,1.144,2.841,1.144s2.094-0.382,2.841-1.144c0.746-0.763,1.119-1.748,1.119-2.958
			c0-1.211-0.373-2.197-1.119-2.96c-0.747-0.762-1.693-1.143-2.841-1.143s-2.095,0.381-2.841,1.143
			c-0.747,0.763-1.12,1.749-1.12,2.96C653.46,217.578,653.833,218.563,654.58,219.326z"/>
		<path fill="#FFFFFF" d="M681.066,222.639h-7.214v-16.48h6.413c1.115,0,2.078,0.135,2.889,0.401
			c0.809,0.268,1.41,0.629,1.803,1.085c0.754,0.849,1.132,1.808,1.132,2.876c0,1.289-0.409,2.248-1.227,2.877
			c-0.298,0.22-0.503,0.357-0.612,0.412c-0.11,0.055-0.307,0.146-0.589,0.271c1.021,0.221,1.834,0.681,2.438,1.38
			c0.605,0.699,0.908,1.567,0.908,2.605c0,1.146-0.393,2.16-1.179,3.04C684.902,222.128,683.314,222.639,681.066,222.639z
			 M676.635,212.996h3.536c2.012,0,3.018-0.684,3.018-2.052c0-0.785-0.243-1.351-0.73-1.697c-0.487-0.345-1.242-0.519-2.264-0.519
			h-3.56V212.996z M676.635,220.069h4.361c1.022,0,1.804-0.161,2.346-0.483c0.543-0.322,0.813-0.932,0.813-1.828
			c0-1.461-1.171-2.192-3.513-2.192h-4.008V220.069z"/>
		<path fill="#FFFFFF" d="M700.281,222.639h-2.405v-1.674c-1.037,1.241-2.428,1.862-4.172,1.862c-1.305,0-2.386-0.369-3.242-1.108
			c-0.857-0.738-1.284-1.724-1.284-2.958c0-1.233,0.455-2.158,1.367-2.771c0.911-0.612,2.146-0.92,3.701-0.92h3.419v-0.472
			c0-1.665-0.929-2.499-2.782-2.499c-1.164,0-2.374,0.425-3.631,1.273l-1.179-1.649c1.524-1.21,3.253-1.815,5.187-1.815
			c1.477,0,2.684,0.373,3.619,1.119c0.935,0.747,1.402,1.921,1.402,3.525V222.639z M697.642,217.971v-1.062h-2.971
			c-1.902,0-2.853,0.599-2.853,1.792c0,0.612,0.235,1.081,0.707,1.403c0.472,0.321,1.128,0.482,1.968,0.482
			c0.841,0,1.576-0.235,2.205-0.707S697.642,218.772,697.642,217.971z"/>
		<path fill="#FFFFFF" d="M710.537,212.572c-1.305,0-2.287,0.424-2.947,1.272c-0.659,0.849-0.99,1.989-0.99,3.419v5.375h-2.64
			v-12.543h2.64v2.523c0.424-0.786,1.002-1.431,1.733-1.934c0.73-0.503,1.505-0.763,2.322-0.777l0.023,2.664
			C710.632,212.572,710.584,212.572,710.537,212.572z"/>
		<path fill="#FFFFFF" d="M720.038,209.908c1.682,0,3.12,0.581,4.314,1.744c1.193,1.163,1.791,2.711,1.791,4.645
			s-0.593,3.505-1.78,4.715c-1.187,1.211-2.569,1.815-4.148,1.815s-2.998-0.691-4.256-2.074v1.886h-2.64v-17.493h2.64v7.144
			C716.997,210.701,718.355,209.908,720.038,209.908z M715.912,216.392c0,1.194,0.361,2.172,1.085,2.935
			c0.723,0.762,1.603,1.144,2.64,1.144c1.038,0,1.941-0.377,2.711-1.132c0.771-0.755,1.156-1.732,1.156-2.936
			c0-1.202-0.378-2.2-1.132-2.994c-0.755-0.794-1.659-1.19-2.712-1.19s-1.94,0.396-2.663,1.19
			C716.273,214.202,715.912,215.196,715.912,216.392z"/>
		<path fill="#FFFFFF" d="M739.653,220.953c-1.258,1.249-2.829,1.874-4.716,1.874c-1.886,0-3.458-0.625-4.715-1.874
			c-1.258-1.249-1.886-2.778-1.886-4.585c0-1.808,0.628-3.337,1.886-4.586c1.257-1.25,2.829-1.874,4.715-1.874
			c1.887,0,3.458,0.624,4.716,1.874c1.257,1.249,1.886,2.778,1.886,4.586C741.539,218.175,740.91,219.704,739.653,220.953z
			 M732.097,219.326c0.746,0.762,1.693,1.144,2.841,1.144s2.094-0.382,2.841-1.144c0.746-0.763,1.119-1.748,1.119-2.958
			c0-1.211-0.373-2.197-1.119-2.96c-0.747-0.762-1.693-1.143-2.841-1.143s-2.095,0.381-2.841,1.143
			c-0.747,0.763-1.12,1.749-1.12,2.96C730.977,217.578,731.35,218.563,732.097,219.326z"/>
		<path fill="#FFFFFF" d="M743.991,212.407v-2.264h9.807v2.381l-7.049,7.827h7.427v2.287h-10.657v-2.569l6.861-7.662H743.991z"/>
		<path fill="#FFFFFF" d="M767.307,222.639h-2.404v-1.674c-1.037,1.241-2.429,1.862-4.173,1.862c-1.305,0-2.386-0.369-3.242-1.108
			c-0.856-0.738-1.284-1.724-1.284-2.958c0-1.233,0.456-2.158,1.367-2.771s2.146-0.92,3.701-0.92h3.419v-0.472
			c0-1.665-0.929-2.499-2.782-2.499c-1.163,0-2.373,0.425-3.63,1.273l-1.18-1.649c1.524-1.21,3.253-1.815,5.187-1.815
			c1.477,0,2.684,0.373,3.619,1.119c0.936,0.747,1.402,1.921,1.402,3.525V222.639z M764.667,217.971v-1.062h-2.971
			c-1.902,0-2.853,0.599-2.853,1.792c0,0.612,0.235,1.081,0.707,1.403c0.472,0.321,1.128,0.482,1.969,0.482
			c0.84,0,1.575-0.235,2.204-0.707S764.667,218.772,764.667,217.971z"/>
	</g>
</g>
<g>
	<path fill="#FFFFFF" d="M148.221,220.818c0,4.445,3.604,8.05,8.049,8.05h70.321v-78.37h-78.37V220.818z M171.307,186.328h12.745
		v-12.744h6.707v12.744h12.745v6.708h-12.745v12.745h-6.707v-12.745h-12.745V186.328z"/>
	<path fill="#FFFFFF" d="M232.944,150.498v78.37h70.321c4.445,0,8.049-3.604,8.049-8.05v-70.32H232.944z M288.228,200.415h-32.197
		v-6.708h32.197V200.415z M288.228,185.658h-32.197v-6.708h32.197V185.658z"/>
	<path fill="#FFFFFF" d="M226.59,65.774h-70.32c-4.445,0-8.049,3.604-8.049,8.049v70.321h78.369V65.774z M203.504,108.313h-32.198
		v-6.708h32.198V108.313z"/>
	<path fill="#FFFFFF" d="M311.314,73.824c0-4.445-3.604-8.049-8.05-8.049h-70.32v78.37h78.37V73.824z M285.884,113.971l-4.743,4.743
		l-9.012-9.013l-9.012,9.013l-4.743-4.743l9.012-9.012l-9.012-9.011l4.743-4.744l9.012,9.013l9.012-9.013l4.743,4.743l-9.012,9.013
		L285.884,113.971z"/>
</g>
</svg>
